<?xml version="1.0" encoding="UTF-8"?>
<svg version="1.1" xmlns="http://www.w3.org/2000/svg" width="512" height="512">
<path d="M0 0 C168.96 0 337.92 0 512 0 C512 168.96 512 337.92 512 512 C343.04 512 174.08 512 0 512 C0 343.04 0 174.08 0 0 Z " fill="#4A47D9" transform="translate(0,0)"/>
<path d="M0 0 C0.85904731 -0.00583219 1.71809462 -0.01166439 2.60317367 -0.01767331 C3.55247491 -0.01389399 4.50177615 -0.01011467 5.47984409 -0.00622082 C6.98606314 -0.01195914 6.98606314 -0.01195914 8.52271086 -0.01781338 C11.90915475 -0.02818533 15.29543041 -0.02414329 18.68188572 -0.02018261 C21.10092928 -0.02452676 23.51997146 -0.02970891 25.93901157 -0.03567028 C31.84065276 -0.04770632 37.74225176 -0.05020782 43.64390057 -0.04787002 C48.43931345 -0.0460895 53.23471249 -0.04783076 58.03012371 -0.05209446 C58.71172543 -0.05268965 59.39332714 -0.05328484 60.09558346 -0.05389806 C61.4801052 -0.05510977 62.86462694 -0.0563239 64.24914867 -0.05754044 C77.24363714 -0.06842579 90.23809968 -0.06624881 103.23258961 -0.06015559 C115.12887713 -0.05498572 127.02508278 -0.06624193 138.92135411 -0.08525381 C151.12670362 -0.10461061 163.33201436 -0.112892 175.53737932 -0.10913056 C182.39366509 -0.1072152 189.24988116 -0.10973848 196.10615444 -0.1238451 C202.55178356 -0.13697221 208.99728952 -0.13452825 215.44291973 -0.12143421 C217.81373365 -0.11905763 220.18455896 -0.12184149 222.55535984 -0.13005733 C225.78176537 -0.1404352 229.00760985 -0.13249642 232.23399448 -0.11974621 C233.181065 -0.12712049 234.12813552 -0.13449478 235.10390514 -0.14209253 C236.39638773 -0.13128271 236.39638773 -0.13128271 237.71498108 -0.12025452 C238.83258053 -0.12033704 238.83258053 -0.12033704 239.97275776 -0.12042123 C242.49187449 0.36447453 243.39962915 1.21688643 244.92041111 3.25447559 C244.84953533 8.41423203 242.89901245 10.98828608 239.54541111 14.75447559 C238.62549775 15.81007576 237.70760228 16.86743708 236.79150486 17.92635059 C236.31567966 18.47226856 235.83985447 19.01818653 235.34961033 19.58064747 C233.01212786 22.31822516 230.81346816 25.16036186 228.60791111 28.00447559 C224.60603289 33.13852984 220.53700081 38.21197156 216.42041111 43.25447559 C212.37056182 48.21677442 208.36235872 53.20601637 204.42041111 58.25447559 C199.93841001 63.99458227 195.36084554 69.65140806 190.75634861 75.29353809 C187.26511028 79.57899178 183.82222223 83.89777012 180.42041111 88.25447559 C175.93841001 93.99458227 171.36084554 99.65140806 166.75634861 105.29353809 C163.26511028 109.57899178 159.82222223 113.89777012 156.42041111 118.25447559 C151.9464449 123.98429197 147.37834396 129.6320317 142.78051853 135.26277637 C138.56977968 140.42921101 134.43489664 145.65114492 130.34619236 150.91463184 C128.61538899 153.13618128 126.91411421 155.26077249 124.92041111 157.25447559 C124.60622613 159.47804434 124.60622613 159.47804434 124.64193821 162.08861256 C124.63077473 163.10947453 124.61961124 164.13033649 124.60810947 165.18213367 C124.60486919 166.86850689 124.60486919 166.86850689 124.60156345 168.58894825 C124.59151783 169.76942234 124.58147221 170.94989643 124.57112217 172.16614246 C124.54547978 175.40766443 124.52865532 178.6490906 124.51569414 181.89068365 C124.50008951 185.27667761 124.47329087 188.66258219 124.44766331 192.04851246 C124.40082809 198.46224399 124.36410703 204.87599225 124.33099043 211.28980768 C124.29280246 218.59085852 124.24338366 225.89181971 124.19300628 233.19279504 C124.08961594 248.213289 124.00037873 263.23383731 123.92041111 278.25447559 C125.07552944 278.24448284 125.07552944 278.24448284 126.2539835 278.23428822 C133.50808894 278.17419931 140.76207386 278.1285127 148.01636314 278.09903908 C151.74596166 278.08337701 155.47535469 278.0621293 159.20483494 278.02815723 C162.80340885 277.99558241 166.401785 277.97762666 170.00049496 277.96984386 C171.37405289 277.96429692 172.74759989 277.95346507 174.12107372 277.93728542 C176.04341818 277.91553884 177.96596126 277.91425043 179.88842869 277.91389942 C180.98319019 277.90723759 182.0779517 277.90057575 183.20588779 277.89371204 C185.92041111 278.25447559 185.92041111 278.25447559 187.77397251 279.6195116 C189.41612379 281.96142351 189.33949736 283.46056727 188.92041111 286.25447559 C187.7334137 287.88649559 187.7334137 287.88649559 185.92041111 289.25447559 C183.48533058 289.63479233 183.48533058 289.63479233 180.53736973 289.64215565 C178.86123096 289.6570126 178.86123096 289.6570126 177.15123081 289.67216969 C175.9246526 289.66766804 174.69807438 289.66316639 173.43432713 289.65852833 C171.49747044 289.6688232 171.49747044 289.6688232 169.52148533 289.67932606 C165.97804722 289.69729226 162.43485628 289.69608262 158.89138627 289.69038367 C155.93405396 289.68729661 152.97676945 289.69337892 150.01944393 289.69942242 C143.04295191 289.71347756 136.06658231 289.71189836 129.09008884 289.70052052 C121.89122945 289.6890395 114.6927426 289.70311214 107.49393231 289.72991699 C101.31464053 289.75206473 95.13546578 289.75871345 88.95613712 289.75284058 C85.26489846 289.74946738 81.5738986 289.75190973 77.88269329 289.76909161 C73.76685162 289.78741325 69.65173603 289.77338336 65.53588963 289.75618458 C64.31133564 289.76585255 63.08678165 289.77552052 61.82511997 289.78548145 C60.70487431 289.77564732 59.58462864 289.76581318 58.43043613 289.75568104 C57.45723203 289.75547175 56.48402792 289.75526247 55.48133278 289.75504684 C52.17725507 289.1092144 50.95531846 287.88822588 48.92041111 285.25447559 C49.08191316 281.86293264 49.50337868 280.67150802 51.92041111 278.25447559 C54.51467991 278.01396656 54.51467991 278.01396656 57.83886814 278.02742481 C59.0800037 278.02757587 60.32113926 278.02772694 61.59988499 278.02788258 C62.95933281 278.03809659 64.31877901 278.0485286 65.67822361 278.05916309 C67.0654184 278.06289275 68.45261582 278.06573995 69.83981419 278.06773853 C73.49281162 278.07537876 77.14565028 278.09503044 80.79858494 278.11714649 C84.52536973 278.13759663 88.25218015 278.14673846 91.97900486 278.15681934 C99.29287936 278.17827609 106.606623 278.21241657 113.92041111 278.25447559 C114.09427749 262.75438534 114.19238608 247.25514407 114.20281792 231.75414753 C114.20938722 224.55481166 114.23979268 217.35711688 114.32837009 210.15828419 C114.40560641 203.87606257 114.43602469 197.59555979 114.4125945 191.31287909 C114.40178044 187.99132638 114.41976224 184.67632973 114.48009777 181.35486317 C114.71707949 167.49250349 114.89666619 156.6055812 104.95254326 146.12948322 C103.83418194 145.02865471 102.70308805 143.94058442 101.55853939 142.86700916 C98.8803262 140.23064135 96.67589444 137.25121601 94.42041111 134.25447559 C90.48497468 129.20110183 86.47002311 124.21667622 82.42041111 119.25447559 C77.91281138 113.73107875 73.47198469 108.16263124 69.08447361 102.54353809 C65.58264864 98.07010851 62.01229947 93.65580358 58.42041111 89.25447559 C53.91281138 83.73107875 49.47198469 78.16263124 45.08447361 72.54353809 C41.5826476 68.07010718 38.0122419 63.65585181 34.42041111 59.25447559 C29.89287039 53.70529501 25.42525249 48.11531922 21.01416111 42.47322559 C18.17762552 38.84739315 15.31949277 35.24020154 12.43920994 31.64900684 C11.43316468 30.39407818 10.42906749 29.13758512 9.42700291 27.87947559 C6.88879467 24.69414271 4.32702857 21.53390113 1.71728611 18.40681934 C0.70161769 17.16857371 -0.3140089 15.93029376 -1.32958889 14.69197559 C-1.80783108 14.13252247 -2.28607327 13.57306934 -2.77880764 12.99666309 C-4.99310499 10.26985776 -6.04885123 8.49326171 -6.50146389 4.97713184 C-5.81724356 0.56137655 -4.10178909 0.00477288 0 0 Z " fill="#4E4AD5" transform="translate(122.07958889007568,140.7455244064331)"/>
<path d="M0 0 C0.85904731 -0.00583219 1.71809462 -0.01166439 2.60317367 -0.01767331 C3.55247491 -0.01389399 4.50177615 -0.01011467 5.47984409 -0.00622082 C6.98606314 -0.01195914 6.98606314 -0.01195914 8.52271086 -0.01781338 C11.90915475 -0.02818533 15.29543041 -0.02414329 18.68188572 -0.02018261 C21.10092928 -0.02452676 23.51997146 -0.02970891 25.93901157 -0.03567028 C31.84065276 -0.04770632 37.74225176 -0.05020782 43.64390057 -0.04787002 C48.43931345 -0.0460895 53.23471249 -0.04783076 58.03012371 -0.05209446 C58.71172543 -0.05268965 59.39332714 -0.05328484 60.09558346 -0.05389806 C61.4801052 -0.05510977 62.86462694 -0.0563239 64.24914867 -0.05754044 C77.24363714 -0.06842579 90.23809968 -0.06624881 103.23258961 -0.06015559 C115.12887713 -0.05498572 127.02508278 -0.06624193 138.92135411 -0.08525381 C151.12670362 -0.10461061 163.33201436 -0.112892 175.53737932 -0.10913056 C182.39366509 -0.1072152 189.24988116 -0.10973848 196.10615444 -0.1238451 C202.55178356 -0.13697221 208.99728952 -0.13452825 215.44291973 -0.12143421 C217.81373365 -0.11905763 220.18455896 -0.12184149 222.55535984 -0.13005733 C225.78176537 -0.1404352 229.00760985 -0.13249642 232.23399448 -0.11974621 C233.181065 -0.12712049 234.12813552 -0.13449478 235.10390514 -0.14209253 C236.39638773 -0.13128271 236.39638773 -0.13128271 237.71498108 -0.12025452 C238.83258053 -0.12033704 238.83258053 -0.12033704 239.97275776 -0.12042123 C242.49187449 0.36447453 243.39962915 1.21688643 244.92041111 3.25447559 C244.84953533 8.41423203 242.89901245 10.98828608 239.54541111 14.75447559 C238.62549775 15.81007576 237.70760228 16.86743708 236.79150486 17.92635059 C236.31567966 18.47226856 235.83985447 19.01818653 235.34961033 19.58064747 C233.01212786 22.31822516 230.81346816 25.16036186 228.60791111 28.00447559 C224.60603289 33.13852984 220.53700081 38.21197156 216.42041111 43.25447559 C212.37056182 48.21677442 208.36235872 53.20601637 204.42041111 58.25447559 C199.93841001 63.99458227 195.36084554 69.65140806 190.75634861 75.29353809 C187.26511028 79.57899178 183.82222223 83.89777012 180.42041111 88.25447559 C175.93841001 93.99458227 171.36084554 99.65140806 166.75634861 105.29353809 C163.26511028 109.57899178 159.82222223 113.89777012 156.42041111 118.25447559 C151.9464449 123.98429197 147.37834396 129.6320317 142.78051853 135.26277637 C138.56977968 140.42921101 134.43489664 145.65114492 130.34619236 150.91463184 C128.61538899 153.13618128 126.91411421 155.26077249 124.92041111 157.25447559 C124.60622613 159.47804434 124.60622613 159.47804434 124.64193821 162.08861256 C124.63077473 163.10947453 124.61961124 164.13033649 124.60810947 165.18213367 C124.60486919 166.86850689 124.60486919 166.86850689 124.60156345 168.58894825 C124.59151783 169.76942234 124.58147221 170.94989643 124.57112217 172.16614246 C124.54547978 175.40766443 124.52865532 178.6490906 124.51569414 181.89068365 C124.50008951 185.27667761 124.47329087 188.66258219 124.44766331 192.04851246 C124.40082809 198.46224399 124.36410703 204.87599225 124.33099043 211.28980768 C124.29280246 218.59085852 124.24338366 225.89181971 124.19300628 233.19279504 C124.08961594 248.213289 124.00037873 263.23383731 123.92041111 278.25447559 C125.07552944 278.24448284 125.07552944 278.24448284 126.2539835 278.23428822 C133.50808894 278.17419931 140.76207386 278.1285127 148.01636314 278.09903908 C151.74596166 278.08337701 155.47535469 278.0621293 159.20483494 278.02815723 C162.80340885 277.99558241 166.401785 277.97762666 170.00049496 277.96984386 C171.37405289 277.96429692 172.74759989 277.95346507 174.12107372 277.93728542 C176.04341818 277.91553884 177.96596126 277.91425043 179.88842869 277.91389942 C180.98319019 277.90723759 182.0779517 277.90057575 183.20588779 277.89371204 C185.92041111 278.25447559 185.92041111 278.25447559 187.77397251 279.6195116 C189.41612379 281.96142351 189.33949736 283.46056727 188.92041111 286.25447559 C187.7334137 287.88649559 187.7334137 287.88649559 185.92041111 289.25447559 C183.48533058 289.63479233 183.48533058 289.63479233 180.53736973 289.64215565 C178.86123096 289.6570126 178.86123096 289.6570126 177.15123081 289.67216969 C175.9246526 289.66766804 174.69807438 289.66316639 173.43432713 289.65852833 C171.49747044 289.6688232 171.49747044 289.6688232 169.52148533 289.67932606 C165.97804722 289.69729226 162.43485628 289.69608262 158.89138627 289.69038367 C155.93405396 289.68729661 152.97676945 289.69337892 150.01944393 289.69942242 C143.04295191 289.71347756 136.06658231 289.71189836 129.09008884 289.70052052 C121.89122945 289.6890395 114.6927426 289.70311214 107.49393231 289.72991699 C101.31464053 289.75206473 95.13546578 289.75871345 88.95613712 289.75284058 C85.26489846 289.74946738 81.5738986 289.75190973 77.88269329 289.76909161 C73.76685162 289.78741325 69.65173603 289.77338336 65.53588963 289.75618458 C64.31133564 289.76585255 63.08678165 289.77552052 61.82511997 289.78548145 C60.70487431 289.77564732 59.58462864 289.76581318 58.43043613 289.75568104 C57.45723203 289.75547175 56.48402792 289.75526247 55.48133278 289.75504684 C52.17725507 289.1092144 50.95531846 287.88822588 48.92041111 285.25447559 C49.08191316 281.86293264 49.50337868 280.67150802 51.92041111 278.25447559 C54.51467991 278.01396656 54.51467991 278.01396656 57.83886814 278.02742481 C59.0800037 278.02757587 60.32113926 278.02772694 61.59988499 278.02788258 C62.95933281 278.03809659 64.31877901 278.0485286 65.67822361 278.05916309 C67.0654184 278.06289275 68.45261582 278.06573995 69.83981419 278.06773853 C73.49281162 278.07537876 77.14565028 278.09503044 80.79858494 278.11714649 C84.52536973 278.13759663 88.25218015 278.14673846 91.97900486 278.15681934 C99.29287936 278.17827609 106.606623 278.21241657 113.92041111 278.25447559 C114.09427749 262.75438534 114.19238608 247.25514407 114.20281792 231.75414753 C114.20938722 224.55481166 114.23979268 217.35711688 114.32837009 210.15828419 C114.40560641 203.87606257 114.43602469 197.59555979 114.4125945 191.31287909 C114.40178044 187.99132638 114.41976224 184.67632973 114.48009777 181.35486317 C114.71707949 167.49250349 114.89666619 156.6055812 104.95254326 146.12948322 C103.83418194 145.02865471 102.70308805 143.94058442 101.55853939 142.86700916 C98.8803262 140.23064135 96.67589444 137.25121601 94.42041111 134.25447559 C90.48497468 129.20110183 86.47002311 124.21667622 82.42041111 119.25447559 C77.91281138 113.73107875 73.47198469 108.16263124 69.08447361 102.54353809 C65.58264864 98.07010851 62.01229947 93.65580358 58.42041111 89.25447559 C53.91281138 83.73107875 49.47198469 78.16263124 45.08447361 72.54353809 C41.5826476 68.07010718 38.0122419 63.65585181 34.42041111 59.25447559 C29.89287039 53.70529501 25.42525249 48.11531922 21.01416111 42.47322559 C18.17762552 38.84739315 15.31949277 35.24020154 12.43920994 31.64900684 C11.43316468 30.39407818 10.42906749 29.13758512 9.42700291 27.87947559 C6.88879467 24.69414271 4.32702857 21.53390113 1.71728611 18.40681934 C0.70161769 17.16857371 -0.3140089 15.93029376 -1.32958889 14.69197559 C-1.80783108 14.13252247 -2.28607327 13.57306934 -2.77880764 12.99666309 C-4.99310499 10.26985776 -6.04885123 8.49326171 -6.50146389 4.97713184 C-5.81724356 0.56137655 -4.10178909 0.00477288 0 0 Z M9.92041111 10.25447559 C11.41256659 13.23878655 12.52119201 15.17650829 14.57275486 17.65291309 C15.09611423 18.28970997 15.61947361 18.92650684 16.15869236 19.58260059 C16.99980564 20.59580372 16.99980564 20.59580372 17.85791111 21.62947559 C19.04505603 23.07401035 20.23123853 24.51933652 21.41650486 25.96541309 C22.00931248 26.68825489 22.60212009 27.41109669 23.21289158 28.15584278 C25.6554046 31.1578219 28.04172727 34.20183868 30.42041111 37.25447559 C34.31479275 42.24590618 38.2848238 47.16853011 42.29541111 52.06697559 C46.84668812 57.63002347 51.26658519 63.27623051 55.60791111 69.00447559 C60.07975446 74.90449233 64.67609022 80.63872721 69.45556736 86.29353809 C72.68257525 90.17003886 75.78292118 94.13858614 78.88574314 98.11458302 C81.68683303 101.69881054 84.5278213 105.24315 87.42041111 108.75447559 C90.71156381 112.75045923 93.9247392 116.79773514 97.10791111 120.87947559 C101.46988987 126.46296531 105.92081834 131.96882079 110.42041111 137.44197559 C111.02006687 138.17303516 111.61972263 138.90409473 112.23754978 139.65730762 C112.80320652 140.34292774 113.36886326 141.02854786 113.95166111 141.73494434 C114.45246189 142.34233448 114.95326267 142.94972462 115.46923923 143.57552052 C116.88615446 145.21484185 118.3685635 146.74326886 119.92041111 148.25447559 C120.5636533 147.42947559 121.20689548 146.60447559 121.86962986 145.75447559 C126.99107204 139.20272073 132.16221892 132.69711502 137.42041111 126.25447559 C141.9296909 120.72906676 146.37313861 115.15931386 150.76074314 109.5369463 C154.21415771 105.12342026 157.74534311 100.77795265 161.29541111 96.44197559 C165.84668812 90.87892771 170.26658519 85.23272068 174.60791111 79.50447559 C179.08480894 73.59779013 183.68734202 67.85792693 188.47119236 62.19588184 C191.12215156 59.012194 193.68551043 55.77104041 196.23291111 52.50447559 C200.2363281 47.37157908 204.30415872 42.297325 208.42041111 37.25447559 C212.66135487 32.05091393 216.88140351 26.83239411 221.04541111 21.56697559 C221.49464939 21.00301075 221.94388767 20.43904591 222.40673923 19.85799122 C224.8637185 16.73675949 226.8599254 13.68861844 228.92041111 10.25447559 C156.65041111 10.25447559 84.38041111 10.25447559 9.92041111 10.25447559 Z " fill="#F9F9FC" transform="translate(122.07958889007568,140.7455244064331)"/>
<path d="M0 0 C48.51 0 97.02 0 147 0 C145.09988856 3.1668524 143.53547133 5.73194136 141.25 8.49609375 C140.72986328 9.12966797 140.20972656 9.76324219 139.67382812 10.41601562 C139.12146484 11.08310547 138.56910156 11.75019531 138 12.4375 C136.82197748 13.87292766 135.64490955 15.30913921 134.46875 16.74609375 C133.58896484 17.82093018 133.58896484 17.82093018 132.69140625 18.91748047 C130.25632255 21.91564213 127.87462692 24.95388135 125.5 28 C121.01849869 33.74048823 116.44042464 39.39694446 111.8359375 45.0390625 C107.88879099 49.88413807 104.01271129 54.77963844 100.16845703 59.70654297 C96.63026387 64.22892025 93.01099923 68.6810595 89.375 73.125 C84.06483622 79.61999849 78.95963934 86.23336028 74 93 C69.78151061 88.94740626 66.07128918 84.59210096 62.375 80.0625 C61.75890869 79.31105713 61.14281738 78.55961426 60.50805664 77.78540039 C56.31321794 72.65270669 52.18979164 67.46854083 48.11474609 62.24047852 C44.63278884 57.7802934 41.07807358 53.38333673 37.5 49 C32.99529782 43.48030258 28.55704194 37.91578054 24.17285156 32.30004883 C20.58619524 27.71775026 16.92743185 23.19715124 13.25 18.6875 C5.59768627 9.28771928 5.59768627 9.28771928 2.6875 5.625 C2.15511719 4.95726562 1.62273437 4.28953125 1.07421875 3.6015625 C0 2 0 2 0 0 Z " fill="#FDFDFE" transform="translate(168,178)"/>
<path d="M0 0 C2.54434886 2.22010651 4.9619442 4.51725071 7.35546875 6.8984375 C7.98195313 7.49011719 8.6084375 8.08179687 9.25390625 8.69140625 C13.35442766 12.89397683 16.01795936 17.64808525 18.66796875 22.8359375 C19.00586426 23.49215088 19.34375977 24.14836426 19.69189453 24.82446289 C26.18364782 38.12844843 26.80914976 56.00900999 22.73046875 70.1484375 C21.9987031 72.08876383 21.20877392 74.00840641 20.35546875 75.8984375 C19.93136719 76.84589844 19.50726563 77.79335937 19.0703125 78.76953125 C15.56414308 85.81116955 10.88943147 91.35525151 5.35546875 96.8984375 C4.64390625 97.62160156 3.93234375 98.34476562 3.19921875 99.08984375 C-10.07633928 111.76415368 -27.03096483 115.52056679 -44.828125 115.26171875 C-52.65906107 114.88942056 -60.64068209 112.40036208 -67.64453125 108.8984375 C-66.57052017 105.98326458 -65.86642949 104.12033574 -63.64453125 101.8984375 C-61.76171875 102.0703125 -61.76171875 102.0703125 -59.51953125 102.6484375 C-58.70742188 102.84695312 -57.8953125 103.04546875 -57.05859375 103.25 C-54.99375111 103.80463411 -52.94239747 104.40907763 -50.89453125 105.0234375 C-37.50059065 108.33876933 -23.4074783 105.0167844 -11.49609375 98.62109375 C-2.8866865 93.42006828 3.1716017 87.51973511 8.35546875 78.8984375 C8.75507813 78.24101562 9.1546875 77.58359375 9.56640625 76.90625 C16.2695661 64.75992276 17.14633501 49.96768085 14.23046875 36.5859375 C10.29503234 23.1216435 1.42017266 11.1938812 -10.64453125 3.8984375 C-24.40902578 -3.34709554 -38.9995396 -5.27496497 -54.328125 -2.4140625 C-69.36252771 2.27807879 -81.28388986 12.03559181 -88.64453125 25.8984375 C-90.45263093 29.84879199 -92.10602804 33.83593824 -93.64453125 37.8984375 C-96.28453125 37.8984375 -98.92453125 37.8984375 -101.64453125 37.8984375 C-100.47895184 23.7224717 -92.38231659 11.011823 -81.64453125 1.8984375 C-74.08727261 -4.01622488 -65.93064436 -8.53547628 -56.64453125 -11.1015625 C-55.48630859 -11.43607422 -55.48630859 -11.43607422 -54.3046875 -11.77734375 C-35.65980702 -16.33773881 -15.03590887 -11.94877249 0 0 Z " fill="#F8F8FC" transform="translate(400.64453125,95.1015625)"/>
<path d="M0 0 C11.007829 1.22309211 19.34459452 4.11501837 28 11 C23.03805145 16.99500997 17.6523376 22.46427037 12.125 27.9375 C11.24585938 28.81212891 10.36671875 29.68675781 9.4609375 30.58789062 C7.3095654 32.72757048 5.15588208 34.86486597 3 37 C2.01 36.67 1.02 36.34 0 36 C0 24.12 0 12.24 0 0 Z " fill="#FAFAFC" transform="translate(365,98)"/>
<path d="M0 0 C11.88 0 23.76 0 36 0 C36 10.37242639 32.53692723 18.96891798 26 27 C20.39503598 24.67876053 16.50506371 19.83886786 12.29882812 15.61450195 C10.74990505 14.06240485 9.1880929 12.52413858 7.625 10.98632812 C6.63981526 10.00341511 5.65541242 9.01971763 4.671875 8.03515625 C3.7756543 7.1419165 2.87943359 6.24867676 1.95605469 5.32836914 C0 3 0 3 0 0 Z " fill="#FBFBFD" transform="translate(373,150)"/>
<path d="M0 0 C5.02230744 1.67410248 6.65457402 6.46935474 9 11 C11.52253359 16.78314183 12 20.46093147 12 27 C0.12 27 -11.76 27 -24 27 C-22.88063463 22.52253852 -21.05273688 20.66083144 -17.87109375 17.578125 C-17.36199966 17.07327576 -16.85290558 16.56842651 -16.3283844 16.04827881 C-14.7050088 14.44166021 -13.071503 12.84580178 -11.4375 11.25 C-10.3332995 10.16085016 -9.22977555 9.07101395 -8.12695312 7.98046875 C-5.4257471 5.3122924 -2.71540937 2.65371709 0 0 Z " fill="#F9F9FC" transform="translate(397,115)"/>
<path d="M0 0 C3.73806611 1.56095069 6.13242541 3.87429146 8.984375 6.71875 C9.91894531 7.65074219 10.85351562 8.58273438 11.81640625 9.54296875 C12.2973877 10.02813965 12.77836914 10.51331055 13.27392578 11.01318359 C14.75204848 12.50206339 16.24059911 13.97991651 17.73046875 15.45703125 C18.65988281 16.38902344 19.58929688 17.32101563 20.546875 18.28125 C21.40120117 19.13783203 22.25552734 19.99441406 23.13574219 20.87695312 C25 23 25 23 25 25 C16.97290001 30.81369371 8.01413232 35 -2 35 C-2.04937279 30.33692986 -2.08570627 25.67401127 -2.10986328 21.01074219 C-2.11993188 19.42380117 -2.13358767 17.83687875 -2.15087891 16.25 C-2.17509001 13.97130753 -2.18647422 11.69285994 -2.1953125 9.4140625 C-2.20563507 8.70255035 -2.21595764 7.99103821 -2.22659302 7.25796509 C-2.22699422 5.50368335 -2.12202209 3.75003291 -2 2 C-1.34 1.34 -0.68 0.68 0 0 Z " fill="#FCFCFD" transform="translate(367,159)"/>
<path d="M0 0 C0 11.22 0 22.44 0 34 C-5.5048056 32.89903888 -6.51422695 31.96497242 -10.30078125 28.08984375 C-10.7820195 27.60294571 -11.26325775 27.11604767 -11.75907898 26.61439514 C-13.28657021 25.06460092 -14.79952748 23.50145808 -16.3125 21.9375 C-17.3486791 20.88124806 -18.3857791 19.82589867 -19.42382812 18.77148438 C-21.95996895 16.1913578 -24.48326459 13.5990748 -27 11 C-23.62327203 7.51384267 -20.91534094 5.16818499 -16.4375 3.25 C-15.50808594 2.84265625 -14.57867187 2.4353125 -13.62109375 2.015625 C-8.52364865 0.04045998 -5.87932302 0 0 0 Z " fill="#FCFCFE" transform="translate(357,99)"/>
<path d="M0 0 C4.53665737 3.7301405 8.77941122 7.67053566 12.9375 11.8125 C13.68253784 12.55077026 13.68253784 12.55077026 14.44262695 13.30395508 C18 16.87624634 18 16.87624634 18 18 C9.09 18 0.18 18 -9 18 C-8.19012639 13.95063197 -7.4285124 11.44923367 -5.625 7.875 C-5.20476562 7.02679688 -4.78453125 6.17859375 -4.3515625 5.3046875 C-3.08935088 3.15236132 -1.8491495 1.65450219 0 0 Z " fill="#FBFBFD" transform="translate(324,115)"/>
<path d="M0 0 C0.33 0 0.66 0 1 0 C1 6.93 1 13.86 1 21 C-9.125 19.875 -9.125 19.875 -13 18 C-11.26971166 13.99561842 -8.6062707 10.72112792 -5.9375 7.3125 C-5.47794922 6.71888672 -5.01839844 6.12527344 -4.54492188 5.51367188 C-1.17900989 1.17900989 -1.17900989 1.17900989 0 0 Z " fill="#F9F9FC" transform="translate(356,173)"/>
<path d="M0 0 C0 6.01466127 -6.1962445 11.54417213 -10 16 C-10.66 15.67 -11.32 15.34 -12 15 C-10.18829771 12.68687105 -8.37567861 10.37447123 -6.5625 8.0625 C-6.04623047 7.40314453 -5.52996094 6.74378906 -4.99804688 6.06445312 C-4.50498047 5.43603516 -4.01191406 4.80761719 -3.50390625 4.16015625 C-3.04830322 3.57886963 -2.5927002 2.99758301 -2.12329102 2.39868164 C-1 1 -1 1 0 0 Z " fill="#5754C6" transform="translate(305,191)"/>
<path d="M0 0 C0 3 0 3 -1.75 5.04296875 C-2.4925 5.75066406 -3.235 6.45835938 -4 7.1875 C-4.7425 7.90292969 -5.485 8.61835937 -6.25 9.35546875 C-6.8275 9.89816406 -7.405 10.44085938 -8 11 C-8.99 10.67 -9.98 10.34 -11 10 C-3.70159453 2.51708428 -3.70159453 2.51708428 0 0 Z " fill="#5B58C9" transform="translate(329,100)"/>
<path d="M0 0 C4.95 0 9.9 0 15 0 C13.515 2.475 13.515 2.475 12 5 C11.67 3.68 11.34 2.36 11 1 C7.37 1 3.74 1 0 1 C0 0.67 0 0.34 0 0 Z " fill="#504CCA" transform="translate(335,152)"/>
<path d="M0 0 C0.66 0 1.32 0 2 0 C2 4 2 4 -0.25 6.3125 C-3 8 -3 8 -5.3125 7.75 C-5.869375 7.5025 -6.42625 7.255 -7 7 C-1.25 3 -1.25 3 1 3 C0.67 2.01 0.34 1.02 0 0 Z " fill="#625EC7" transform="translate(391,181)"/>
</svg>
